<svg width="42" height="41" viewBox="0 0 42 41" fill="none" xmlns="http://www.w3.org/2000/svg">
<path d="M11.9091 10.4207L18.06 2.42174C18.445 1.93116 18.8928 1.56323 19.4035 1.31793C19.9138 1.07264 20.4475 0.949997 21.0047 0.949997C21.5616 0.949997 22.0937 1.07264 22.6012 1.31793C23.1087 1.56323 23.555 1.93116 23.94 2.42174L30.0909 10.4207L39.4275 13.565C40.2325 13.8453 40.8625 14.3203 41.3175 14.9899C41.7725 15.6596 42 16.3993 42 17.2091C42 17.583 41.947 17.9562 41.8409 18.3287C41.7345 18.7012 41.5601 19.0581 41.3175 19.3994L35.3325 27.9671L35.5425 37.0604C35.5425 38.1467 35.175 39.0665 34.44 39.8199C33.705 40.5733 32.8268 40.95 31.8055 40.95C31.7418 40.95 31.4125 40.8974 30.8175 40.7923L21 38.0591L11.194 40.7881C11.0113 40.861 10.8236 40.9062 10.6307 40.9237C10.4379 40.9412 10.2611 40.95 10.1005 40.95C9.07183 40.95 8.19875 40.57 7.48125 39.8099C6.76375 39.0502 6.4225 38.1162 6.4575 37.0078L6.6675 27.9014L0.6825 19.3468C0.43995 19.0024 0.265475 18.6423 0.159075 18.2667C0.0530249 17.8907 0 17.5149 0 17.1392C0 16.3333 0.2261 15.6042 0.6783 14.9521C1.1305 14.3003 1.7619 13.838 2.5725 13.565L11.9091 10.4207ZM13.8075 13.1445L2.835 16.8238L9.87 27.021L9.6075 37.9014L21 34.7476L32.3925 37.9539L32.13 27.021L39.165 16.929L28.1925 13.1445L21 3.78837L13.8075 13.1445Z" fill="black"/>
</svg>
