<svg width="42" height="40" viewBox="0 0 42 40" fill="none" xmlns="http://www.w3.org/2000/svg">
<path d="M11.9091 9.4707L18.06 1.47175C18.445 0.981165 18.8928 0.613228 19.4035 0.367937C19.9138 0.122646 20.4475 0 21.0047 0C21.5616 0 22.0937 0.122646 22.6012 0.367937C23.1087 0.613228 23.555 0.981165 23.94 1.47175L30.0909 9.4707L39.4275 12.615C40.2325 12.8953 40.8625 13.3703 41.3175 14.0399C41.7725 14.7096 42 15.4493 42 16.2591C42 16.633 41.947 17.0062 41.8409 17.3787C41.7345 17.7512 41.5601 18.1081 41.3175 18.4494L35.3325 27.0171L35.5425 36.1104C35.5425 37.1967 35.175 38.1165 34.44 38.8699C33.705 39.6233 32.8268 40 31.8055 40C31.7418 40 31.4125 39.9474 30.8175 39.8423L21 37.1091L11.194 39.8381C11.0113 39.911 10.8236 39.9562 10.6307 39.9737C10.4379 39.9912 10.2611 40 10.1005 40C9.07183 40 8.19875 39.62 7.48125 38.8599C6.76375 38.1002 6.4225 37.1662 6.4575 36.0578L6.6675 26.9514L0.6825 18.3968C0.43995 18.0524 0.265475 17.6923 0.159075 17.3167C0.0530249 16.9407 0 16.5649 0 16.1892C0 15.3833 0.2261 14.6542 0.6783 14.0021C1.1305 13.3503 1.7619 12.888 2.5725 12.615L11.9091 9.4707Z" fill="url(#paint0_linear_726_22)"/>
<defs>
<linearGradient id="paint0_linear_726_22" x1="-5.45679" y1="13.9241" x2="45.407" y2="33.4016" gradientUnits="userSpaceOnUse">
<stop stop-color="#FF0000"/>
<stop offset="1" stop-color="#FFC700"/>
</linearGradient>
</defs>
</svg>
